<?xml version="1.0" encoding="UTF-8"?>
<svg version="1.1" xmlns="http://www.w3.org/2000/svg" width="1024" height="1024">
<path d="M0 0 C3.47680587 3.06718219 6.5162614 5.90720461 9.09375 9.7734375 C11.77634929 9.98633356 11.77634929 9.98633356 14.96875 9.7109375 C21.20890952 9.57042214 26.80721412 10.29167046 32.90625 11.5859375 C34.19341919 11.85603638 34.19341919 11.85603638 35.5065918 12.1315918 C38.75668167 12.82295065 42.00329036 13.5281707 45.24511719 14.25732422 C65.08571116 18.65626188 85.69866016 18.18520713 105.31640625 12.90625 C126.44741635 7.29624732 147.5363705 10.97224699 166.31591797 21.70898438 C176.54050555 27.83081929 185.58939774 35.5433457 193.09375 44.7734375 C194.17914063 44.49628906 195.26453125 44.21914063 196.3828125 43.93359375 C197.82809281 43.5675812 199.27340712 43.2017029 200.71875 42.8359375 C201.43160156 42.65353516 202.14445312 42.47113281 202.87890625 42.28320312 C217.10492958 38.6940688 229.14954698 39.30943712 243.34375 42.6484375 C267.16060866 48.24181546 288.57546568 49.1524895 312.38671875 42.91015625 C326.46434196 39.29215564 339.15167917 40.80857804 353.09375 43.7734375 C355.25888526 44.17756343 357.42538364 44.57452349 359.59375 44.9609375 C360.4703125 45.11949219 361.346875 45.27804687 362.25 45.44140625 C362.8584375 45.55097656 363.466875 45.66054688 364.09375 45.7734375 C364.35671875 45.18820312 364.6196875 44.60296875 364.890625 44 C372.8195393 29.3263599 393.87231289 19.32555715 409.109375 14.42578125 C412.42551334 13.45799611 415.73064953 12.56083007 419.09375 11.7734375 C419.856875 11.58394531 420.62 11.39445313 421.40625 11.19921875 C433.40020025 9.29901442 445.29751752 10.5544627 457.03125 13.2734375 C478.80528908 18.1767777 500.89564467 17.21012147 522.21875 10.83984375 C547.83248878 3.72113178 575.33625635 8.99848767 598.10839844 21.57568359 C603.67227436 24.93234558 608.4394638 29.27235892 613.09375 33.7734375 C614.34285156 34.97806641 614.34285156 34.97806641 615.6171875 36.20703125 C637.67695717 59.13262806 639.26243465 88.80459431 639.2265625 118.7734375 C639.22723802 120.7825522 639.2282101 122.79166682 639.22946167 124.80078125 C639.23092697 128.98959133 639.22882192 133.17837994 639.22412109 137.3671875 C639.21842455 142.69915477 639.22170984 148.03107168 639.22769356 153.36303711 C639.23133086 157.5052121 639.23014611 161.64737542 639.22756577 165.78955078 C639.22690524 167.75406907 639.22769383 169.71858847 639.23004532 171.68310547 C639.25913442 202.80434267 635.58403141 228.33771286 613.46875 251.8984375 C607.63639036 257.55078604 601.06356236 261.68246068 594.09375 265.7734375 C593.39765625 266.19367188 592.7015625 266.61390625 591.984375 267.046875 C587.5808703 269.48244176 582.79982949 270.970373 578.03125 272.5234375 C577.35787598 272.74676758 576.68450195 272.97009766 575.99072266 273.20019531 C571.59440054 274.56698334 567.74552951 275.16344089 563.09375 274.7734375 C559.08839909 272.32572306 557.42570609 270.84741307 556.03125 266.3359375 C556.10413114 262.18171266 556.70300722 260.16674983 559.09375 256.7734375 C563.43762865 254.25822268 567.91876036 252.86664448 572.71875 251.5234375 C588.27225287 246.91233206 600.50946055 237.87055455 608.83203125 223.84375 C613.7949037 214.36133863 616.15758881 205.66432763 616.65966797 195.03417969 C616.70093245 194.2002557 616.74219692 193.36633171 616.78471184 192.5071373 C617.1814702 183.89199222 617.23929722 175.28676208 617.2265625 166.6640625 C617.22723998 164.99753811 617.22821365 163.33101381 617.22946167 161.66448975 C617.23091945 158.20242353 617.22884807 154.74038344 617.22412109 151.27832031 C617.21844213 146.91403536 617.22180074 142.54981159 617.22755527 138.18552876 C617.26800941 115.70669017 617.26800941 115.70669017 616.66015625 93.23828125 C616.62298492 92.34784119 616.5858136 91.45740112 616.54751587 90.53997803 C615.81533031 75.93645114 610.70071599 62.89135823 601.09375 51.7734375 C600.48273437 51.04511719 599.87171875 50.31679688 599.2421875 49.56640625 C594.91074956 44.80506904 590.33375337 41.44241653 584.71875 38.3984375 C584.13101807 38.07681641 583.54328613 37.75519531 582.93774414 37.42382812 C572.40052532 32.03050525 562.05764873 31.26501367 550.44458008 31.32739258 C548.05916012 31.33583868 545.6761967 31.3071602 543.29101562 31.27539062 C532.77184149 31.2288861 523.23227165 32.71331928 513.05493164 35.30403137 C491.9950574 40.3446833 469.73406624 38.31977858 448.78515625 33.87109375 C430.63445588 30.04207727 413.7628539 32.88649756 398 42.73828125 C392.77585732 46.39658546 387.57817565 50.22540298 383.09375 54.7734375 C383.09375 55.7634375 383.09375 56.7534375 383.09375 57.7734375 C385.18484932 59.84812388 385.18484932 59.84812388 387.90625 62.0234375 C403.35309663 75.38321429 412.2148885 93.65064642 415.09375 113.7734375 C415.18935778 116.0007009 415.23687742 118.23032153 415.24765015 120.45960999 C415.2520324 121.10640998 415.25641465 121.75320997 415.2609297 122.41960996 C415.27421496 124.57279327 415.28047299 126.72593576 415.28662109 128.87915039 C415.29452963 130.4285551 415.30279904 131.977958 415.31140137 133.52735901 C415.33751542 138.60025294 415.35290962 143.67315474 415.3671875 148.74609375 C415.3725499 150.49498436 415.37792742 152.24387491 415.38331985 153.99276543 C415.40492517 161.26486656 415.42366415 168.53696556 415.43494225 175.80909061 C415.45120299 186.22360887 415.48445885 196.63775546 415.54134309 207.05213362 C415.58001164 214.3813592 415.59957075 221.71048519 415.60486281 229.03981012 C415.60851799 233.4157837 415.62055837 237.79135988 415.65296555 242.16722298 C415.68299533 246.28041005 415.68937659 250.39295806 415.67758179 254.50623131 C415.67736068 256.0151266 415.68569643 257.52405117 415.70323563 259.03284454 C415.72589281 261.09408373 415.71765318 263.15299787 415.70175171 265.21424866 C415.70671693 266.94336534 415.70671693 266.94336534 415.71178246 268.70741367 C414.89804256 272.74433095 413.26189723 274.2258111 410.09375 276.7734375 C406.08227178 277.94041298 403.83667809 278.00203076 399.84375 276.7734375 C396.34433816 274.22841071 395.11081497 271.87796451 394.09375 267.7734375 C393.66397845 262.81667481 393.70716868 257.86747139 393.74072266 252.89648438 C393.73989099 251.38286202 393.73767213 249.86923989 393.73417664 248.35562134 C393.72923893 245.10409633 393.73330117 241.8527521 393.74419022 238.60124207 C393.76061282 233.44652951 393.75205476 228.29204124 393.73934937 223.1373291 C393.70929088 209.40408295 393.71062149 195.67087725 393.72960222 181.93761492 C393.74198256 172.9147195 393.73993734 163.89207989 393.71121442 154.86921358 C393.69608576 149.75922584 393.70330809 144.64993736 393.72792459 139.53999424 C393.73809323 136.34008857 393.72719594 133.14049361 393.71080971 129.94062424 C393.7073974 128.47303585 393.71228396 127.00539691 393.72677803 125.53787613 C393.86623533 110.46654523 390.10481669 98.01872451 381.09375 85.7734375 C380.65675781 85.14179687 380.21976563 84.51015625 379.76953125 83.859375 C370.53009723 71.70660594 354.02335212 64.3803895 339.21875 62.2109375 C331.27773453 61.28661725 323.92316566 62.58011305 316.1796875 64.30908203 C313.44727938 64.91734985 310.70464986 65.46692381 307.95922852 66.01293945 C306.15692329 66.37330921 304.35761965 66.74860088 302.55859375 67.125 C282.2661129 70.92269089 260.85232539 69.62996648 241.00244141 64.13012695 C228.88951804 60.78609597 215.84393682 59.55113225 204.09375 64.7734375 C204.43148438 65.65644531 204.76921875 66.53945313 205.1171875 67.44921875 C205.56320312 68.64933594 206.00921875 69.84945312 206.46875 71.0859375 C207.13003906 72.84357422 207.13003906 72.84357422 207.8046875 74.63671875 C211.38104782 85.44905301 211.38153324 96.3186261 211.35253906 107.57397461 C211.35525352 109.35233706 211.358817 111.13069839 211.36315918 112.90905762 C211.3722267 117.70813691 211.36876356 122.5071296 211.36240101 127.30621028 C211.35731724 132.3371635 211.36203854 137.36810958 211.36517334 142.39906311 C211.36880372 150.83775152 211.36403582 159.27640482 211.35449219 167.71508789 C211.34358472 177.47244183 211.34715354 187.22971234 211.358145 196.9870643 C211.36721489 205.37454758 211.36850535 213.76200573 211.36326766 222.14949232 C211.3601495 227.15509985 211.35973493 232.16066811 211.36634064 237.16627312 C211.37210998 241.86541288 211.36812478 246.56444462 211.35655212 251.26357269 C211.3539044 252.9889489 211.35467255 254.71433418 211.35907745 256.4397068 C211.36452927 258.79158789 211.35770362 261.14312104 211.34771729 263.49497986 C211.34658621 265.47015296 211.34658621 265.47015296 211.34543228 267.48522854 C211.10876543 270.57726208 210.84267912 272.25595157 209.09375 274.7734375 C205.69604091 277.06491573 203.64708147 277.7734375 199.53125 277.7734375 C195.4122046 276.57516975 193.73661329 275.11588225 191.09375 271.7734375 C189.91060067 268.40278048 189.97306583 265.15619844 189.98022461 261.60748291 C189.9802951 260.34088837 189.9803656 259.07429382 189.98043823 257.76931763 C189.98557258 256.36737029 189.99079403 254.96542328 189.99609375 253.56347656 C189.99801353 252.08460541 189.99947704 250.6057336 190.0005188 249.12686157 C190.00368148 245.93919932 190.00995385 242.75156352 190.01858521 239.56391144 C190.03214781 234.49945783 190.03801224 229.43501295 190.04272461 224.37054443 C190.05476796 212.67894746 190.07665043 200.9873728 190.09895325 189.29579163 C190.11924321 178.63051511 190.13731736 167.96524707 190.14716816 157.29995513 C190.15128576 153.10291355 190.1574954 148.90589849 190.16891479 144.70886993 C190.23481442 122.32620689 190.23481442 122.32620689 189.66796875 99.95214844 C189.63107437 99.00133518 189.59417999 98.05052193 189.5561676 97.07089615 C189.24266913 90.35986302 188.38391136 84.12430513 186.09375 77.7734375 C185.76632812 76.79890625 185.43890625 75.824375 185.1015625 74.8203125 C178.88218172 58.09232282 165.96927731 44.9030966 149.9921875 37.296875 C134.79505524 30.97398056 120.42297215 30.95654599 104.65625 34.7109375 C82.30717256 39.93929311 59.20506655 40.11154748 36.95800781 34.17431641 C30.04874035 32.36359997 23.22069019 31.98091756 16.09375 31.7734375 C15.86300781 32.81242188 15.63226563 33.85140625 15.39453125 34.921875 C11.71558332 50.92356858 5.83648892 63.26957516 -8.40625 72.7109375 C-13.3539396 75.63744326 -18.45021402 77.96448439 -23.90625 79.7734375 C-24.50050781 79.97066406 -25.09476563 80.16789063 -25.70703125 80.37109375 C-29.01294522 80.97590572 -32.30905494 80.87706561 -35.65625 80.8359375 C-36.35363281 80.83142578 -37.05101562 80.82691406 -37.76953125 80.82226562 C-39.48180803 80.8105377 -41.19404033 80.79260403 -42.90625 80.7734375 C-46.54064703 89.16050756 -48.35630858 96.92216731 -48.29443359 106.04980469 C-48.30231903 107.51055923 -48.30231903 107.51055923 -48.31036377 109.00082397 C-48.32346754 112.19082118 -48.314857 115.38031101 -48.3046875 118.5703125 C-48.30671165 120.80934748 -48.30962592 123.04838181 -48.31338501 125.28741455 C-48.31779593 129.97097068 -48.3114194 134.6543546 -48.29736328 139.33789062 C-48.28031208 145.30682547 -48.29009492 151.27535432 -48.30808067 157.24427414 C-48.31898575 161.86687203 -48.31544081 166.4893757 -48.3076973 171.11197662 C-48.30571176 173.31094665 -48.3080959 175.50992554 -48.31513596 177.70888519 C-48.36755195 198.68800271 -46.56227839 218.96481624 -30.90625 234.7734375 C-11.83565742 250.93495663 8.39378259 251.92907368 32.30078125 251.94140625 C33.80238372 251.94463257 35.3039859 251.94799758 36.80558777 251.95149231 C39.92240122 251.95741711 43.03918719 251.95933876 46.15600586 251.95874023 C50.12413354 251.95863807 54.0920845 251.9723761 58.06017017 251.98951244 C61.1496205 252.00068595 64.23902848 252.00265793 67.32849693 252.00213051 C68.7911408 252.00329925 70.25378617 252.00765775 71.71640968 252.01546288 C88.30794787 252.38963467 88.30794787 252.38963467 102.28125 244.6484375 C105.21633157 239.99279087 106.46670445 235.65847592 105.75390625 230.14453125 C104.24101203 224.13771455 102.3033243 221.10756505 97.09375 217.7734375 C92.88657104 215.68551812 89.36378194 215.51742003 84.69238281 215.50219727 C83.96483795 215.49697052 83.23729309 215.49174377 82.48770142 215.48635864 C80.91358842 215.47614763 79.33944194 215.47034331 77.76529694 215.46847725 C75.26709924 215.46479992 72.7692937 215.44803451 70.2711792 215.42771912 C63.17044396 215.37244934 56.06965081 215.3416992 48.96875 215.31713867 C44.61862106 215.30118889 40.26876958 215.27089035 35.9187851 215.23237419 C34.26834833 215.22078672 32.61786178 215.21479439 30.96738434 215.21469307 C18.71145908 215.21366814 8.48503277 214.57033528 -0.90625 205.7734375 C-7.77531599 198.12732785 -10.9840357 190.16895457 -11.08325195 179.86914062 C-11.10250481 178.12207825 -11.10250481 178.12207825 -11.12214661 176.33972168 C-11.12953354 175.0906604 -11.13692047 173.84159912 -11.14453125 172.5546875 C-11.152603 171.26405396 -11.16067474 169.97342041 -11.16899109 168.64367676 C-11.18396985 165.91691218 -11.19383281 163.19017321 -11.20141602 160.46337891 C-11.21250552 156.97628914 -11.24695437 153.48983304 -11.28658772 150.00296783 C-11.31904592 146.66606651 -11.32352953 143.32923448 -11.33203125 139.9921875 C-11.34953934 138.74312622 -11.36704742 137.49406494 -11.38508606 136.20715332 C-11.38216049 135.04244507 -11.37923492 133.87773682 -11.3762207 132.67773438 C-11.38208694 131.65578979 -11.38795319 130.63384521 -11.39399719 129.58093262 C-10.77545617 126.02058226 -9.3760328 124.36204226 -6.90625 121.7734375 C-3.84260216 119.95180905 -1.99349226 119.7734375 1.59375 119.7734375 C6.32547662 121.12535939 7.38753144 122.71410966 10.09375 126.7734375 C11.09445112 129.78957698 11.20607819 132.52556155 11.17553711 135.69042969 C11.1690062 136.66534363 11.16247528 137.64025757 11.15574646 138.64471436 C11.14431107 139.69266174 11.13287567 140.74060913 11.12109375 141.8203125 C11.10844332 144.04947759 11.09608267 146.27864434 11.08398438 148.5078125 C11.05921081 152.01437576 11.03127468 155.52085233 10.99780273 159.02734375 C10.96747264 162.41667208 10.94978326 165.80589116 10.93359375 169.1953125 C10.92013412 170.23516296 10.9066745 171.27501343 10.89280701 172.34637451 C10.66199383 181.92183636 10.66199383 181.92183636 14.43057251 190.4160614 C20.75061662 195.5740658 31.90240207 193.97747573 39.48046875 193.86328125 C40.86895227 193.85189635 42.25744758 193.84187777 43.64595032 193.83314514 C49.49360221 193.7937957 55.34089936 193.7288752 61.18823242 193.65698242 C64.78421576 193.61373995 68.38007968 193.58597236 71.97626686 193.56668282 C73.97785008 193.55128228 75.97927468 193.51835929 77.9806366 193.48484802 C92.62722977 193.4066299 105.01731492 195.62703562 116.15234375 205.62109375 C124.56640664 214.43324133 127.56156035 225.0858136 127.42578125 236.97265625 C126.46637712 247.95501182 121.38304506 256.65762698 113.09375 263.7734375 C103.79652989 270.35489068 95.30824042 273.08293991 84.05419922 273.0480957 C82.75481667 273.0557621 82.75481667 273.0557621 81.42918396 273.06358337 C78.58553006 273.07740119 75.74212084 273.07652773 72.8984375 273.07421875 C70.90316683 273.07811148 68.90789697 273.08244733 66.91262817 273.08720398 C62.73501905 273.09465058 58.55749445 273.09438734 54.37988281 273.08911133 C49.06107649 273.08333519 43.7426205 273.10021044 38.42387199 273.123456 C34.30225648 273.13828881 30.18072333 273.13905186 26.05908585 273.13594627 C24.10014277 273.13645524 22.14119455 273.14161203 20.18227768 273.15175819 C-4.97772025 273.26603975 -26.81890929 267.68009266 -45.69140625 250.0703125 C-62.16318081 232.98847222 -70.01414366 212.18090055 -70.08325195 188.57226562 C-70.09310875 187.08750732 -70.09310875 187.08750732 -70.10316467 185.57275391 C-70.12277471 182.31673081 -70.13453435 179.06075362 -70.14453125 175.8046875 C-70.14860678 174.684608 -70.1526823 173.5645285 -70.15688133 172.4105072 C-70.17769231 166.47875151 -70.19201404 160.54701859 -70.20141602 154.61523438 C-70.21245464 148.5275873 -70.24683995 142.44030829 -70.28658772 136.35279083 C-70.31288985 131.63748554 -70.32111999 126.92226609 -70.32469749 122.20689392 C-70.32953032 119.96489483 -70.34104831 117.72289871 -70.35973549 115.48097229 C-70.57544235 87.88179008 -70.57544235 87.88179008 -64.23188782 75.50720215 C-62.59230709 72.86266151 -62.59230709 72.86266151 -63.53515625 70.16015625 C-64.8601966 67.85360453 -66.26562511 65.72624429 -67.84375 63.5859375 C-73.65449527 54.9621664 -74.97713227 46.0539073 -73.90625 35.7734375 C-72.27111783 28.03732831 -69.77034583 21.04160223 -64.90625 14.7734375 C-64.00132812 13.59007812 -64.00132812 13.59007812 -63.078125 12.3828125 C-55.39413945 3.10511143 -44.7988999 -4.53388705 -32.90625 -7.2265625 C-31.978125 -7.4740625 -31.05 -7.7215625 -30.09375 -7.9765625 C-19.082945 -8.84015505 -8.88538019 -6.80734772 0 0 Z M-47.21484375 24.60546875 C-51.75619511 30.42636946 -54.23579752 37.3520273 -53.90625 44.7734375 C-52.48482786 51.75475862 -48.79746426 55.84596133 -42.90625 59.7734375 C-34.44713363 61.83777232 -27.28019904 60.08905758 -19.71875 56.0859375 C-12.27781083 49.96783196 -7.08772038 43.11804205 -5.52734375 33.41796875 C-5.22750426 27.79839629 -6.68114858 23.37180791 -9.90625 18.7734375 C-15.35969878 13.58601061 -20.20694229 13.35663964 -27.484375 13.4375 C-35.65718275 14.23985327 -41.73589277 18.70591143 -47.21484375 24.60546875 Z " fill="#E3B66B" transform="translate(233.90625,558.2265625)"/>
<path d="M0 0 C1.76258051 -0.00243394 3.52515962 -0.00615906 5.28773499 -0.01106262 C10.03363753 -0.02039288 14.77933097 -0.01111295 19.52521706 0.00226951 C24.51677058 0.01367109 29.50831511 0.00946981 34.49987793 0.00752258 C42.87869642 0.00664234 51.25743358 0.01766332 59.63623047 0.03613281 C69.2917744 0.05729622 78.94719932 0.06080863 88.60276175 0.05457085 C97.93168791 0.04885506 107.26057262 0.05454889 116.5894928 0.0657444 C120.54127274 0.07036112 124.49302708 0.07127702 128.44480896 0.06915855 C133.10709367 0.06726002 137.76925912 0.07549851 142.43151665 0.09121895 C144.13172855 0.09542259 145.83195265 0.09633916 147.53216743 0.09352875 C167.04283631 0.0661956 184.00762255 1.54228744 198.83007812 15.8527832 C207.24662569 25.54684245 211.48791394 36.46816307 211.42163086 49.18383789 C211.43192574 50.58826141 211.43192574 50.58826141 211.44242859 52.02105713 C211.46060799 55.09142579 211.45687058 58.16127893 211.45117188 61.23168945 C211.45573897 63.38486902 211.46104611 65.53804713 211.46705627 67.69122314 C211.47597085 72.19663424 211.47358428 76.70186795 211.46362305 81.20727539 C211.45215487 86.95110818 211.47232078 92.6943242 211.50154018 98.43807602 C211.51998371 102.8839297 211.51959319 107.32963794 211.51390266 111.77552032 C211.51375034 113.89159254 211.51972008 116.00767518 211.53219414 118.12371063 C211.6276875 136.98198842 209.41019057 151.83053523 195.63085938 165.7902832 C178.86935742 180.17656427 157.32343113 178.71208629 136.60571289 178.10498047 C133.96818158 178.03254039 131.33159238 177.99133919 128.69335938 177.9543457 C127.8944075 177.92226517 127.09545563 177.89018463 126.27229309 177.85713196 C122.08910513 177.81895951 120.53921475 177.94771293 117.18139648 180.6809082 C116.46733643 181.56907227 115.75327637 182.45723633 115.01757812 183.37231445 C114.44168945 183.97325928 113.86580078 184.5742041 113.27246094 185.19335938 C111.60177183 186.97996634 109.93336026 188.76863074 108.26757812 190.55981445 C107.67847656 191.18823242 107.089375 191.81665039 106.48242188 192.46411133 C105.92167969 193.06674805 105.3609375 193.66938477 104.78320312 194.2902832 C104.27563477 194.83450928 103.76806641 195.37873535 103.24511719 195.93945312 C101.91574637 197.37406919 101.91574637 197.37406919 101.01757812 199.37231445 C100.35757813 199.37231445 99.69757813 199.37231445 99.01757812 199.37231445 C98.78167969 199.92661133 98.54578125 200.4809082 98.30273438 201.05200195 C96.70493263 203.93678687 94.69906803 206.08403478 92.45507812 208.49731445 C89.38038626 211.68738955 89.38038626 211.68738955 87.01757812 215.37231445 C86.35757813 215.37231445 85.69757813 215.37231445 85.01757812 215.37231445 C85.01757812 216.03231445 85.01757812 216.69231445 85.01757812 217.37231445 C81.56590331 220.17680024 78.58567312 220.73264007 74.17773438 220.8684082 C70.8356495 220.10087696 68.71849125 218.46298934 66.01757812 216.37231445 C64.2824707 213.41479492 64.2824707 213.41479492 62.91210938 209.98950195 C62.53598763 209.06803879 62.53598763 209.06803879 62.15226746 208.12796021 C61.36051048 206.17432559 60.59561587 204.21134811 59.83007812 202.24731445 C59.30630425 200.9523885 58.78092584 199.65811034 58.25390625 198.36450195 C55.47194944 191.46935731 52.96653754 184.55113957 51.01757812 177.37231445 C49.86773437 177.44450195 48.71789062 177.51668945 47.53320312 177.59106445 C34.47218154 178.32099846 21.41752091 178.50855618 8.33874512 178.54956055 C6.39089464 178.55633989 4.44305274 178.56653534 2.49523926 178.58032227 C-16.73961016 178.70547517 -34.19459748 178.15303913 -49.11523438 164.4074707 C-59.46440871 153.52706499 -63.17851059 141.01592951 -63.60742188 126.37231445 C-63.64464355 125.22746582 -63.68186523 124.08261719 -63.72021484 122.90307617 C-64.10281517 108.77154806 -64.08986169 94.63303742 -64.10742188 80.49731445 C-64.11010071 79.26658203 -64.11277954 78.03584961 -64.11553955 76.76782227 C-64.19159602 30.58695 -64.19159602 30.58695 -49.65820312 14.85668945 C-35.38516781 1.32307355 -18.73249919 -0.09166262 0 0 Z M-36.98242188 31.37231445 C-41.90586024 39.22423953 -43.13339611 46.23002107 -43.12768555 55.42211914 C-43.13272346 56.59902817 -43.13272346 56.59902817 -43.13786316 57.79971313 C-43.1473242 60.38122157 -43.14931397 62.96266478 -43.15039062 65.54418945 C-43.15360706 67.35011827 -43.15697143 69.15604682 -43.16047668 70.9619751 C-43.1664562 74.74459435 -43.16831784 78.52719081 -43.16772461 82.30981445 C-43.16762317 87.13575603 -43.18126201 91.96154988 -43.19849682 96.78745651 C-43.20966536 100.51772725 -43.21164231 104.24796286 -43.21111488 107.9782486 C-43.2122882 109.75628416 -43.21667323 111.53432083 -43.22444725 113.31233978 C-43.56774042 132.95061293 -43.56774042 132.95061293 -34.58251953 149.93041992 C-26.51620304 157.19921229 -16.9291671 157.14541258 -6.66992188 157.18481445 C-5.07280241 157.21042854 -3.4757143 157.23806596 -1.87866211 157.26757812 C7.49644993 157.41792021 16.86864246 157.36167282 26.24414062 157.27856445 C28.29581643 157.2643944 30.34749286 157.25031509 32.39916992 157.23632812 C36.38850486 157.20828521 40.3758367 157.14962647 44.36450195 157.07275391 C46.20588388 157.0533389 48.04727383 157.03466656 49.88867188 157.0168457 C50.72463898 156.99299805 51.56060608 156.96915039 52.42190552 156.94458008 C57.77041575 156.92089674 60.79020805 157.78897996 65.01757812 161.37231445 C66.88867187 164.26293945 66.88867187 164.26293945 68.45507812 167.62231445 C68.73875244 168.22060059 69.02242676 168.81888672 69.31469727 169.43530273 C70.23858276 171.40467095 71.13166862 173.38558732 72.01757812 175.37231445 C72.345 176.10353516 72.67242187 176.83475586 73.00976562 177.58813477 C75.05082468 182.16667324 77.04798116 186.76261944 79.01757812 191.37231445 C79.67757812 191.04231445 80.33757812 190.71231445 81.01757812 190.37231445 C81.01757812 189.71231445 81.01757812 189.05231445 81.01757812 188.37231445 C81.67757812 188.37231445 82.33757812 188.37231445 83.01757812 188.37231445 C84.38970113 186.84036173 85.68912272 185.24310365 86.95507812 183.62231445 C91.23873627 178.25909141 95.7576349 173.21374484 100.43945312 168.1965332 C103.09499545 165.40842055 103.09499545 165.40842055 105.28320312 162.1418457 C109.73604815 157.63174981 115.43226841 157.29620944 121.61254883 157.16113281 C123.22289378 157.16809556 124.83322016 157.18549264 126.44335938 157.2121582 C127.74662422 157.21996056 127.74662422 157.21996056 129.07621765 157.22792053 C131.82768396 157.24555883 134.57875867 157.27666019 137.33007812 157.30981445 C160.71153154 159.01423506 160.71153154 159.01423506 181.24414062 150.3527832 C189.38247745 141.66695827 191.13974213 133.60313412 191.14697266 121.77563477 C191.14872498 121.05101044 191.15047729 120.32638611 191.15228271 119.57980347 C191.15665465 117.20332384 191.15377848 114.82691974 191.15039062 112.45043945 C191.15106529 110.78285712 191.15203668 109.11527487 191.15328979 107.44769287 C191.15476072 103.95771343 191.15263278 100.46775965 191.14794922 96.9777832 C191.14227008 92.53202886 191.14552327 88.08633513 191.15152168 83.64058304 C191.15515885 80.19679316 191.15397399 76.75301732 191.15139389 73.30922699 C191.1507324 71.67157738 191.15152546 70.03392644 191.15387344 68.39627838 C191.6302778 45.92645931 191.6302778 45.92645931 180.60351562 27.1965332 C171.0686948 20.47030764 160.97318927 20.7991048 149.78320312 20.85473633 C147.94575447 20.84930891 146.10831016 20.84218279 144.27087402 20.83349609 C139.30390149 20.81533351 134.33726305 20.82230101 129.37028503 20.83501244 C124.15928278 20.84517681 118.94830813 20.83573724 113.73730469 20.82946777 C104.9882293 20.82220136 96.2392892 20.83175265 87.49023438 20.85083008 C77.39154848 20.87259684 67.29318567 20.86554476 57.1945076 20.84352446 C48.50629547 20.82534177 39.81818031 20.82282616 31.12995529 20.83327913 C25.94860289 20.83949829 20.76740209 20.84039321 15.58605957 20.82713318 C10.71361757 20.81553351 5.84158999 20.82367538 0.9691925 20.84671021 C-0.81332208 20.85197536 -2.59587186 20.85052133 -4.37837219 20.84165955 C-16.59480017 20.78654894 -28.54878667 21.28628761 -36.98242188 31.37231445 Z " fill="#E2B66B" transform="translate(437.982421875,184.627685546875)"/>
<path d="M0 0 C18.26999345 14.49764663 29.88503832 34.3654961 33.5 57.5 C33.77975255 60.90190892 33.83457904 64.27516783 33.8125 67.6875 C33.80512817 69.05551758 33.80512817 69.05551758 33.79760742 70.45117188 C33.39616201 93.88734899 23.98845688 114.09712334 7.5 130.5 C-9.2045659 146.44526745 -28.93689537 154.24246759 -52 154.875 C-76.73449892 154.27107911 -98.51346397 144.98125388 -115.82958984 127.19799805 C-124.81171048 117.64619668 -130.41492724 106.90485466 -134.5 94.5 C-134.82097656 93.56542969 -135.14195312 92.63085938 -135.47265625 91.66796875 C-141.7031656 70.02057116 -137.57269392 46.20955013 -127.5 26.5 C-115.50832835 6.2640541 -96.18341896 -9.15200152 -73.32641602 -15.06201172 C-47.29604869 -20.92086962 -21.3841578 -15.53504061 0 0 Z M-105.4375 30.0625 C-115.34551177 43.63478863 -119.32494435 60.43799671 -117.00390625 77.05078125 C-114.68420435 89.88122286 -110.48158797 100.19420244 -102.5 110.5 C-102.06300781 111.11359375 -101.62601563 111.7271875 -101.17578125 112.359375 C-92.21559929 124.09102466 -76.71886769 131.13943439 -62.5 133.5 C-44.00636244 135.15670528 -26.5225943 131.50909808 -11.5078125 120.2578125 C-9.04944699 118.09833642 -6.75993123 115.86494662 -4.5 113.5 C-3.55253906 112.58154297 -3.55253906 112.58154297 -2.5859375 111.64453125 C8.43688675 100.25751677 13.0997425 84.32056413 13 68.8125 C12.99427979 67.76811768 12.98855957 66.72373535 12.98266602 65.64770508 C12.66806772 51.88906093 8.90639796 40.54991934 0.5 29.5 C-0.08394531 28.72269531 -0.66789062 27.94539063 -1.26953125 27.14453125 C-13.95856986 11.62383349 -31.88739666 5.5121617 -51.14453125 3.1796875 C-72.76898345 2.07451959 -92.17977615 13.9189354 -105.4375 30.0625 Z " fill="#E3B66B" transform="translate(769.5,406.5)"/>
<path d="M0 0 C19.5103379 15.57957865 31.14504617 35.25442739 34.40625 59.99609375 C34.51229677 61.36952869 34.59595921 62.74489083 34.65625 64.12109375 C34.69621094 64.87003906 34.73617187 65.61898437 34.77734375 66.390625 C35.42288328 89.89585847 25.81660375 110.53740723 10.30859375 127.72265625 C5.2915383 132.98619144 0.1670153 137.04655062 -6.09375 140.74609375 C-8.43523187 142.0561486 -8.43523187 142.0561486 -10.34375 144.12109375 C-13.29032159 145.4714254 -16.36043545 146.51562727 -19.40625 147.62109375 C-20.22802734 147.92917969 -21.04980469 148.23726562 -21.89648438 148.5546875 C-43.48031622 156.46819312 -66.12627706 155.90817042 -87.33203125 146.84375 C-101.41283457 140.25079281 -112.63360375 130.47552893 -121.71875 117.99609375 C-122.14816895 117.40997314 -122.57758789 116.82385254 -123.02001953 116.2199707 C-125.55501587 112.62813511 -127.02113184 109.28672289 -128.34375 105.12109375 C-129.00375 104.79109375 -129.66375 104.46109375 -130.34375 104.12109375 C-139.65762799 80.22897195 -139.39507514 54.62871373 -129.34375 31.12109375 C-125.93178988 24.13512791 -121.25054734 18.11704291 -116.34375 12.12109375 C-115.87324219 11.51523437 -115.40273437 10.909375 -114.91796875 10.28515625 C-105.80351934 -1.06297513 -92.58744524 -8.36474254 -79.34375 -13.87890625 C-78.68375 -14.20890625 -78.02375 -14.53890625 -77.34375 -14.87890625 C-49.81286562 -20.94527479 -22.61547977 -17.18906437 0 0 Z M-92.34375 17.12109375 C-92.96636719 17.58128906 -93.58898437 18.04148437 -94.23046875 18.515625 C-106.81084293 28.32548981 -113.04752491 43.43122057 -116.03125 58.62109375 C-117.7655694 78.04547105 -113.46419773 96.0282408 -100.9296875 111.1484375 C-90.84604381 122.74005812 -75.82814646 132.0570148 -60.171875 133.29248047 C-41.07179386 134.37456168 -23.75509431 130.61885725 -8.96875 117.68359375 C-7.4074971 116.18287408 -5.86423311 114.66310583 -4.34375 113.12109375 C-3.70824219 112.49589844 -3.07273437 111.87070312 -2.41796875 111.2265625 C8.55593489 99.66868173 13.64413847 84.3148342 14.15625 68.62109375 C13.51122587 48.21683053 5.0022157 33.21510096 -9.2578125 19.24609375 C-19.45583695 9.96637482 -33.52776157 3.83571384 -47.34375 3.12109375 C-48.02179688 3.08242188 -48.69984375 3.04375 -49.3984375 3.00390625 C-65.02670386 2.50335679 -80.1757679 7.36478378 -92.34375 17.12109375 Z " fill="#E3B76B" transform="translate(359.34375,406.87890625)"/>
<path d="M0 0 C1.02497086 -0.00861557 2.04994171 -0.01723114 3.10597229 -0.02610779 C6.49155993 -0.0487963 9.87632175 -0.04202305 13.26196289 -0.03295898 C15.61699164 -0.03819342 17.97201829 -0.04446924 20.32704163 -0.05174255 C25.26239895 -0.06215226 30.19746804 -0.05757707 35.1328125 -0.04296875 C41.45599189 -0.02578426 47.77826234 -0.04927017 54.10134029 -0.08445835 C58.96470659 -0.10642429 63.82785517 -0.10499265 68.69125557 -0.09669304 C71.02244628 -0.09587301 73.35365289 -0.1027461 75.68479729 -0.11746407 C78.94538013 -0.13489325 82.20432659 -0.12037902 85.46484375 -0.09765625 C86.42659515 -0.10934845 87.38834656 -0.12104065 88.37924194 -0.13308716 C92.79059487 -0.07057212 95.8518073 0.09923034 99.37672424 2.91004944 C101.91467988 5.66086804 102.69897259 7.07081973 103.23461914 10.72094727 C103.37770508 11.58075195 103.52079102 12.44055664 103.66821289 13.32641602 C103.79711914 15.53344727 103.79711914 15.53344727 102.79711914 17.53344727 C104.1390332 17.48124023 104.1390332 17.48124023 105.50805664 17.42797852 C117.08830046 17.16871933 126.17400225 18.3183058 134.79711914 26.53344727 C141.69545648 34.08876912 144.78235064 42.31364476 144.79711914 52.53344727 C144.00901455 63.36630303 140.37606693 72.6985669 132.94555664 80.71313477 C123.28336164 88.89964907 112.04114252 90.93858039 99.79711914 90.53344727 C99.5302832 91.41387695 99.26344727 92.29430664 98.98852539 93.20141602 C94.14897764 106.73628235 83.27471144 116.93472057 70.79711914 123.53344727 C56.36294231 129.78192645 38.72990176 131.39563539 23.77368164 125.84985352 C8.96668989 119.30135454 -2.49899459 111.07629263 -10.20288086 96.53344727 C-10.6862793 95.63239258 -11.16967773 94.73133789 -11.66772461 93.80297852 C-14.28777545 88.29707457 -15.6673144 82.89906191 -16.32397461 76.85766602 C-16.44884247 75.71118088 -16.44884247 75.71118088 -16.57623291 74.54153442 C-17.60223882 63.90404153 -17.50124153 53.22011662 -17.46362305 42.54370117 C-17.45279669 38.87996262 -17.46363267 35.21670326 -17.47631836 31.55297852 C-17.47499836 29.20011286 -17.47243927 26.8472475 -17.46850586 24.49438477 C-17.47255432 23.41095795 -17.47660278 22.32753113 -17.48077393 21.21127319 C-17.39312572 6.99672249 -17.39312572 6.99672249 -13.25956726 2.34788513 C-8.85260334 -0.26807253 -5.03878356 -0.03411841 0 0 Z M4.79711914 20.53344727 C4.19513038 25.95134608 3.67103597 30.68555506 3.71899414 36.02172852 C3.72866211 37.2213623 3.73833008 38.42099609 3.74829102 39.65698242 C3.7644043 40.93621582 3.78051758 42.21544922 3.79711914 43.53344727 C3.80849108 44.91023515 3.81955132 46.28702564 3.83032227 47.66381836 C3.863288 51.28046019 3.92675573 54.89578243 4.00463867 58.51171875 C4.03305992 59.98978705 4.05416771 61.46801333 4.06811523 62.94628906 C4.18914667 75.16374027 5.56739997 85.76512115 13.68383789 95.46313477 C23.0847152 104.67286669 33.55328276 108.05403314 46.41870117 107.95336914 C57.94870102 107.55674732 66.10674874 102.96715384 74.32446289 95.06469727 C80.17600726 88.66179157 82.92950542 80.37204716 82.91064453 71.84692383 C82.91046326 70.11176514 82.91046326 70.11176514 82.91027832 68.34155273 C82.90516235 67.13128418 82.90004639 65.92101562 82.89477539 64.67407227 C82.89376831 63.55758301 82.89276123 62.44109375 82.89172363 61.29077148 C82.88649315 57.12165296 82.87253188 52.95254908 82.85961914 48.78344727 C82.82868164 34.79969727 82.82868164 34.79969727 82.79711914 20.53344727 C57.05711914 20.53344727 31.31711914 20.53344727 4.79711914 20.53344727 Z M102.79711914 37.53344727 C102.77238464 41.60855165 102.75424277 45.6836269 102.7421875 49.75878906 C102.73716138 51.14486452 102.73033948 52.53093467 102.72167969 53.91699219 C102.70953896 55.91021441 102.70440893 57.90347545 102.69946289 59.89672852 C102.69422607 61.09595947 102.68898926 62.29519043 102.68359375 63.53076172 C102.65866296 66.58501178 102.65866296 66.58501178 103.79711914 69.53344727 C108.13649378 70.97990548 111.54251738 70.03903697 115.79711914 68.53344727 C120.14488008 65.22536829 122.10616457 61.6953086 123.79711914 56.53344727 C124.38179371 51.07648465 123.42829233 47.34214309 120.79711914 42.53344727 C116.98090815 38.76493891 114.29231187 37.9978995 108.98461914 37.78344727 C107.82317383 37.72672852 106.66172852 37.67000977 105.46508789 37.61157227 C104.14444336 37.57290039 104.14444336 37.57290039 102.79711914 37.53344727 Z " fill="#E3B76B" transform="translate(690.202880859375,682.466552734375)"/>
<path d="M0 0 C0.495 0.99 0.495 0.99 1 2 C2.54594696 2.43826846 4.11408163 2.79883152 5.6875 3.125 C24.25756739 7.97772136 40.31804316 22.52871198 50.0390625 38.73193359 C61.82487535 59.5021087 64.80136675 81.87290677 58.52954102 104.80541992 C54.07389359 119.91052403 46.2022338 132.06019042 35 143 C34.29488281 143.72574219 33.58976563 144.45148438 32.86328125 145.19921875 C17.686626 159.91334736 -3.26658877 166.3125 -23.97949219 166.3125 C-43.11258455 166.00934693 -60.02370822 158.75354545 -75 147 C-75.68191406 146.48179687 -76.36382812 145.96359375 -77.06640625 145.4296875 C-92.51900175 132.91036355 -102.82242866 111.55743981 -105 92 C-105.67782548 79.60415055 -104.99535055 68.04348201 -102 56 C-101.65763478 54.33516519 -101.32074785 52.66913442 -101 51 C-100.34 51 -99.68 51 -99 51 C-98.73316406 50.12859375 -98.46632813 49.2571875 -98.19140625 48.359375 C-94.64880827 38.37041021 -88.29424008 30.5106486 -81 23 C-80.37480469 22.30132812 -79.74960937 21.60265625 -79.10546875 20.8828125 C-71.10702532 12.22765476 -60.03756228 5.99967414 -49 2 C-48.01 2 -47.02 2 -46 2 C-45.67 1.34 -45.34 0.68 -45 0 C-30.70967505 -3.21086358 -14.21977878 -3.46406641 0 0 Z M-68 38 C-79.44505583 52.77856723 -86.87474683 68.97227349 -84.5625 88.1796875 C-82.02944187 105.62204849 -74.67064053 120.49814202 -61 132 C-45.82208235 143.13808092 -29.28615784 147.07417649 -10.57421875 144.53515625 C1.14969767 142.16229173 11.04428869 136.84674893 20 129 C20.67675781 128.42894531 21.35351562 127.85789062 22.05078125 127.26953125 C34.03288383 116.35767472 40.09842509 100.1004354 41.19140625 84.21875 C41.79271214 68.23565163 36.54786225 52.65799125 25.8125 40.75 C14.63927366 28.93483069 -0.2666674 19.43841342 -16.8828125 18.6640625 C-36.67568109 18.32083356 -54.11658799 22.81345185 -68 38 Z " fill="#E3B76A" transform="translate(534,424)"/>
<path d="M0 0 C3.0625 2 3.0625 2 5 5 C6.23546501 11.85661675 6.14796002 18.7051264 6.14526367 25.65478516 C6.14862228 26.90452621 6.1519809 28.15426727 6.15544128 29.44187927 C6.16328075 32.84874325 6.16661679 36.25554627 6.16725707 39.66241503 C6.16797037 41.79390121 6.17010987 43.92538109 6.17275429 46.05686569 C6.18198515 53.50080519 6.18609161 60.94472685 6.18530273 68.38867188 C6.18470107 75.31653393 6.19527608 82.24431835 6.2110464 89.17216074 C6.22413051 95.13330437 6.22948634 101.09442262 6.22884732 107.0555805 C6.22859279 110.61037077 6.23141985 114.16509181 6.24202538 117.71986771 C6.25352383 121.68127729 6.24895421 125.64258035 6.24291992 129.60400391 C6.24853943 130.77610916 6.25415894 131.94821442 6.25994873 133.15583801 C6.21417105 144.9657656 6.21417105 144.9657656 2.3125 150.3125 C-0.85761764 152.62582909 -3.09284626 152.93263528 -7 153 C-10.62684361 151.81430113 -12.42850286 150.80157689 -14.64761353 147.68907166 C-16.67253874 142.165433 -16.4170149 136.87597912 -16.38818359 131.03735352 C-16.39344055 129.73098938 -16.39869751 128.42462524 -16.40411377 127.07867432 C-16.41775579 123.50627403 -16.4125014 119.93413453 -16.40297651 116.36172986 C-16.3953621 112.61605981 -16.40243061 108.87041156 -16.40713501 105.1247406 C-16.41258806 98.83434049 -16.40541353 92.54404615 -16.39111328 86.25366211 C-16.37479467 78.99180191 -16.38007124 71.73019451 -16.3965925 64.46834046 C-16.41022873 58.22355384 -16.4121164 51.97884311 -16.40427649 45.7340464 C-16.39961077 42.00871162 -16.39894451 38.28349546 -16.40888596 34.55816841 C-16.41920133 30.40264162 -16.40488342 26.24754703 -16.38818359 22.09204102 C-16.39425629 20.86428452 -16.40032898 19.63652802 -16.40658569 18.37156677 C-16.36054745 12.18452004 -16.19137991 7.38551581 -13 2 C-8.74959762 -0.83360159 -4.98781061 -0.75572888 0 0 Z " fill="#E3B76B" transform="translate(390,683)"/>
<path d="M0 0 C2.95879326 2.07987534 4.75249753 3.74208592 5.46715164 7.37426567 C5.65289536 10.45244644 5.67524284 13.49606281 5.64697266 16.57983398 C5.66011505 18.33674561 5.66011505 18.33674561 5.67352295 20.12915039 C5.69553344 24.00184143 5.68095565 27.87339104 5.6640625 31.74609375 C5.66517592 34.4374331 5.67227512 37.12875209 5.67855835 39.82008362 C5.68764871 45.46164309 5.67568485 51.10287505 5.65185547 56.74438477 C5.624658 63.25831995 5.63344986 69.77147227 5.6609875 76.28538841 C5.68371124 81.8856046 5.68686249 87.48558571 5.67379415 93.08583313 C5.66601545 96.42734742 5.66688771 99.76819966 5.68147659 103.1097393 C5.69417788 106.8372878 5.67481371 110.56333479 5.64697266 114.29077148 C5.65709381 115.39278397 5.66721497 116.49479645 5.67764282 117.63020325 C5.5622164 125.97363752 5.5622164 125.97363752 2.58627319 129.67274475 C-0.51309469 132.46170772 -1.98984814 133.01454715 -6.00390625 133.2421875 C-9.40220051 132.82987 -11.45676095 131.17991919 -14 129 C-16.16013116 125.75980326 -16.25425611 124.86516499 -16.27415466 121.12394714 C-16.28412979 120.11879562 -16.29410492 119.1136441 -16.30438232 118.07803345 C-16.305047 116.97615692 -16.30571167 115.8742804 -16.30639648 114.73901367 C-16.31472 113.57778488 -16.32304352 112.41655609 -16.33161926 111.22013855 C-16.35577617 107.36938148 -16.36449862 103.51879363 -16.37109375 99.66796875 C-16.37779162 97.67124608 -16.38449163 95.67452341 -16.39152867 93.67780191 C-16.41300509 87.39644106 -16.42233521 81.11513425 -16.42553711 74.83374023 C-16.42917056 68.35967015 -16.45905072 61.88607468 -16.50094169 55.41214961 C-16.5356663 49.85024145 -16.55108593 44.28849038 -16.55178314 38.72647458 C-16.55257539 35.40615479 -16.56366044 32.0864272 -16.58978081 28.7661953 C-16.61661421 25.06009929 -16.61189199 21.35531323 -16.59936523 17.64916992 C-16.61419952 16.55336609 -16.62903381 15.45756226 -16.64431763 14.32855225 C-16.56435686 6.02743659 -16.56435686 6.02743659 -13.65003967 2.33442688 C-9.4941428 -1.32651355 -5.20006932 -1.80954793 0 0 Z " fill="#E3B76B" transform="translate(596,703)"/>
<path d="M0 0 C3.8957689 2.18616935 5.98575793 4.1887161 7.8125 8.375 C8.57156957 13.68058003 8.49392075 17.93353303 6.1875 22.8125 C1.85815669 27.48363357 -1.26626026 29.61361982 -7.6875 29.875 C-12.61353649 29.66779901 -15.52047182 28.86314876 -19.1875 25.375 C-21.96272301 21.93859533 -23.42970667 18.75330049 -23.625 14.3125 C-23.00245992 8.70963929 -21.41663202 5.24458012 -17.1875 1.5625 C-11.67512665 -2.4569389 -6.20314608 -2.78910113 0 0 Z " fill="#E3B76B" transform="translate(577.1875,259.625)"/>
<path d="M0 0 C4.0423122 3.15077468 6.61287787 6.89648295 7.4375 11.9765625 C7.74072866 17.11188651 6.49235882 20.01827177 3.12109375 24.02734375 C-1.92708702 28.47455062 -4.8014821 29.33323346 -11.41015625 29.23828125 C-16.15704621 28.83269255 -18.28474306 26.59449952 -21.62890625 23.40234375 C-24.5814833 19.61554652 -25.28789682 15.76682275 -24.87890625 11.02734375 C-23.2779817 5.71901499 -20.62629204 1.99445987 -15.87890625 -0.97265625 C-10.81859392 -2.62739973 -4.76984985 -2.46921541 0 0 Z " fill="#E4B76B" transform="translate(520.87890625,259.97265625)"/>
<path d="M0 0 C4.15720123 3.09445806 6.35243722 7.06644989 7.12109375 12.09765625 C6.93085645 17.29747571 5.99422103 20.99475863 2.74609375 25.09765625 C-2.68602111 29.23641043 -7.12182793 29.9636742 -13.87890625 29.09765625 C-18.25207852 26.91107012 -21.31792003 24.27111528 -23.87890625 20.09765625 C-25.35662791 14.08825484 -25.08141143 9.48892396 -21.87890625 4.09765625 C-16.16731334 -2.34782849 -7.8247567 -3.75783534 0 0 Z " fill="#E3B76B" transform="translate(462.87890625,259.90234375)"/>
<path d="M0 0 C7.59 0 15.18 0 23 0 C23 0.33 23 0.66 23 1 C15.41 1 7.82 1 0 1 C0 0.67 0 0.34 0 0 Z " fill="#E8BB6D" transform="translate(296,774)"/>
<path d="M0 0 C5.61 0 11.22 0 17 0 C17 0.33 17 0.66 17 1 C11.39 1 5.78 1 0 1 C0 0.67 0 0.34 0 0 Z " fill="#E7BB6D" transform="translate(270,774)"/>
<path d="M0 0 C2.64 0 5.28 0 8 0 C8 0.33 8 0.66 8 1 C5.36 1 2.72 1 0 1 C0 0.67 0 0.34 0 0 Z " fill="#E8BB6E" transform="translate(259,774)"/>
<path d="M0 0 C1.65 0 3.3 0 5 0 C5 0.33 5 0.66 5 1 C3.35 1 1.7 1 0 1 C0 0.67 0 0.34 0 0 Z " fill="#E8BB6D" transform="translate(288,774)"/>
<path d="M0 0 C0.33 0 0.66 0 1 0 C1 1.65 1 3.3 1 5 C0.67 5 0.34 5 0 5 C0 3.35 0 1.7 0 0 Z " fill="#E5BA6D" transform="translate(578,747)"/>
<path d="M0 0 C1 4 1 4 1 4 Z " fill="#DBB26A" transform="translate(162,731)"/>
<path d="M0 0 C1 4 1 4 1 4 Z " fill="#E5B96C" transform="translate(578,715)"/>
<path d="" fill="#E6BB6D" transform="translate(0,0)"/>
<path d="" fill="#DCB36B" transform="translate(0,0)"/>
<path d="M0 0 C3 1 3 1 3 1 Z " fill="#E6B96D" transform="translate(516,591)"/>
<path d="" fill="#DCB26B" transform="translate(0,0)"/>
<path d="M0 0 C2 1 2 1 2 1 Z " fill="#E7BB6F" transform="translate(808,808)"/>
<path d="" fill="#DFB368" transform="translate(0,0)"/>
<path d="" fill="#E2B76B" transform="translate(0,0)"/>
<path d="" fill="#E9BD70" transform="translate(0,0)"/>
<path d="M0 0 C2 1 2 1 2 1 Z " fill="#E9BC6D" transform="translate(797,774)"/>
<path d="" fill="#E4B86C" transform="translate(0,0)"/>
<path d="M0 0 C2 1 2 1 2 1 Z " fill="#E9BC70" transform="translate(256,774)"/>
<path d="M0 0 C2 1 2 1 2 1 Z " fill="#E7BC70" transform="translate(233,766)"/>
<path d="" fill="#E6B96C" transform="translate(0,0)"/>
<path d="" fill="#DCB36C" transform="translate(0,0)"/>
<path d="" fill="#DCB46B" transform="translate(0,0)"/>
<path d="" fill="#E8BC71" transform="translate(0,0)"/>
<path d="" fill="#E4BB70" transform="translate(0,0)"/>
<path d="" fill="#E3BA70" transform="translate(0,0)"/>
<path d="M0 0 C2 1 2 1 2 1 Z " fill="#E9BD6F" transform="translate(440,622)"/>
<path d="M0 0 C2 1 2 1 2 1 Z " fill="#E9BB6E" transform="translate(452,620)"/>
<path d="M0 0 C2 1 2 1 2 1 Z " fill="#E8BA6D" transform="translate(701,596)"/>
<path d="M0 0 C2 1 2 1 2 1 Z " fill="#E8BC6F" transform="translate(460,596)"/>
<path d="M0 0 C2 1 2 1 2 1 Z " fill="#E7BB6F" transform="translate(529,589)"/>
<path d="M0 0 C2 1 2 1 2 1 Z " fill="#E7BD71" transform="translate(754,568)"/>
<path d="" fill="#E7BC6F" transform="translate(0,0)"/>
<path d="" fill="#E7BC70" transform="translate(0,0)"/>
<path d="" fill="#E5BC6F" transform="translate(0,0)"/>
<path d="" fill="#D9B16A" transform="translate(0,0)"/>
<path d="" fill="#E8BE70" transform="translate(0,0)"/>
<path d="M0 0 C2 1 2 1 2 1 Z " fill="#E8BA6E" transform="translate(517,444)"/>
<path d="M0 0 C2 1 2 1 2 1 Z " fill="#E6BB6D" transform="translate(457,440)"/>
<path d="M0 0 C2 1 2 1 2 1 Z " fill="#E7BC70" transform="translate(508,420)"/>
<path d="M0 0 C2 1 2 1 2 1 Z " fill="#E7B96E" transform="translate(314,412)"/>
<path d="" fill="#E6BA6E" transform="translate(0,0)"/>
<path d="M0 0 C2 1 2 1 2 1 Z " fill="#E7BD70" transform="translate(436,207)"/>
<path d="" fill="#6C5A3A" transform="translate(0,0)"/>
<path d="" fill="#D0A662" transform="translate(0,0)"/>
<path d="" fill="#D2A765" transform="translate(0,0)"/>
<path d="" fill="#CEA363" transform="translate(0,0)"/>
<path d="" fill="#D3A964" transform="translate(0,0)"/>
<path d="" fill="#D5AC65" transform="translate(0,0)"/>
<path d="" fill="#D9B068" transform="translate(0,0)"/>
<path d="" fill="#D6AC64" transform="translate(0,0)"/>
<path d="" fill="#D0A962" transform="translate(0,0)"/>
<path d="" fill="#D9B168" transform="translate(0,0)"/>
<path d="" fill="#D9AE67" transform="translate(0,0)"/>
<path d="" fill="#DEB56A" transform="translate(0,0)"/>
<path d="" fill="#DCB369" transform="translate(0,0)"/>
<path d="" fill="#E0B269" transform="translate(0,0)"/>
<path d="" fill="#DFB46A" transform="translate(0,0)"/>
<path d="" fill="#E5B66B" transform="translate(0,0)"/>
<path d="" fill="#E6B96B" transform="translate(0,0)"/>
<path d="" fill="#E8B96D" transform="translate(0,0)"/>
<path d="" fill="#E7B96D" transform="translate(0,0)"/>
<path d="" fill="#E3B66A" transform="translate(0,0)"/>
<path d="" fill="#E0B36A" transform="translate(0,0)"/>
<path d="" fill="#D8B06A" transform="translate(0,0)"/>
<path d="" fill="#E4B96A" transform="translate(0,0)"/>
<path d="" fill="#E5BB6F" transform="translate(0,0)"/>
<path d="" fill="#E6B96E" transform="translate(0,0)"/>
<path d="" fill="#E8BA6D" transform="translate(0,0)"/>
<path d="" fill="#E5B96C" transform="translate(0,0)"/>
<path d="" fill="#E2B86C" transform="translate(0,0)"/>
<path d="" fill="#E8BD6F" transform="translate(0,0)"/>
<path d="" fill="#E5BA6D" transform="translate(0,0)"/>
<path d="" fill="#E3B76A" transform="translate(0,0)"/>
<path d="" fill="#D7AF67" transform="translate(0,0)"/>
<path d="" fill="#E8BC6F" transform="translate(0,0)"/>
<path d="" fill="#E8BB6D" transform="translate(0,0)"/>
<path d="" fill="#E8BA6E" transform="translate(0,0)"/>
<path d="" fill="#E9B96F" transform="translate(0,0)"/>
<path d="" fill="#E9BD70" transform="translate(0,0)"/>
<path d="" fill="#E8BD70" transform="translate(0,0)"/>
<path d="" fill="#E4B96B" transform="translate(0,0)"/>
<path d="" fill="#D8B06A" transform="translate(0,0)"/>
<path d="" fill="#E7BD6F" transform="translate(0,0)"/>
<path d="" fill="#E4B96C" transform="translate(0,0)"/>
<path d="" fill="#E9BE70" transform="translate(0,0)"/>
<path d="" fill="#E7BB6F" transform="translate(0,0)"/>
<path d="" fill="#EABD6F" transform="translate(0,0)"/>
<path d="" fill="#E7BD70" transform="translate(0,0)"/>
<path d="" fill="#E7BC6E" transform="translate(0,0)"/>
<path d="" fill="#DAB26A" transform="translate(0,0)"/>
<path d="" fill="#E7BB6F" transform="translate(0,0)"/>
<path d="" fill="#EABC70" transform="translate(0,0)"/>
<path d="" fill="#E5B96B" transform="translate(0,0)"/>
<path d="" fill="#E7BB6E" transform="translate(0,0)"/>
<path d="" fill="#E9BD6F" transform="translate(0,0)"/>
<path d="" fill="#E5B96E" transform="translate(0,0)"/>
<path d="" fill="#E7BC6D" transform="translate(0,0)"/>
<path d="" fill="#E6BA6D" transform="translate(0,0)"/>
<path d="" fill="#EABD71" transform="translate(0,0)"/>
<path d="" fill="#E7BD70" transform="translate(0,0)"/>
<path d="" fill="#DCB26B" transform="translate(0,0)"/>
<path d="" fill="#ECBE6F" transform="translate(0,0)"/>
<path d="" fill="#DCB26A" transform="translate(0,0)"/>
<path d="" fill="#E7BB6E" transform="translate(0,0)"/>
<path d="" fill="#E7BA6D" transform="translate(0,0)"/>
<path d="" fill="#E9BC6D" transform="translate(0,0)"/>
<path d="" fill="#E7BB70" transform="translate(0,0)"/>
<path d="" fill="#E9B96D" transform="translate(0,0)"/>
<path d="" fill="#E6BB6E" transform="translate(0,0)"/>
<path d="" fill="#E8BE6E" transform="translate(0,0)"/>
<path d="" fill="#E6BC6F" transform="translate(0,0)"/>
<path d="" fill="#DDB26C" transform="translate(0,0)"/>
<path d="" fill="#E7BB6F" transform="translate(0,0)"/>
<path d="" fill="#DDB26B" transform="translate(0,0)"/>
<path d="" fill="#E9BE6F" transform="translate(0,0)"/>
<path d="" fill="#E7BB6C" transform="translate(0,0)"/>
<path d="" fill="#E5B86D" transform="translate(0,0)"/>
<path d="" fill="#E8B96C" transform="translate(0,0)"/>
<path d="" fill="#E6B86F" transform="translate(0,0)"/>
<path d="" fill="#EABD70" transform="translate(0,0)"/>
<path d="" fill="#D9B26A" transform="translate(0,0)"/>
<path d="" fill="#E3BC6F" transform="translate(0,0)"/>
<path d="" fill="#E8BB6D" transform="translate(0,0)"/>
<path d="" fill="#E8BB6E" transform="translate(0,0)"/>
<path d="" fill="#EBBC6F" transform="translate(0,0)"/>
<path d="" fill="#E7BA70" transform="translate(0,0)"/>
<path d="" fill="#DFB36C" transform="translate(0,0)"/>
<path d="" fill="#E5BC71" transform="translate(0,0)"/>
<path d="" fill="#E8B96F" transform="translate(0,0)"/>
<path d="" fill="#E6BB72" transform="translate(0,0)"/>
<path d="" fill="#E9B96D" transform="translate(0,0)"/>
<path d="" fill="#E6BC70" transform="translate(0,0)"/>
<path d="" fill="#E8BA6F" transform="translate(0,0)"/>
<path d="" fill="#E8BA6F" transform="translate(0,0)"/>
<path d="" fill="#E7BA6F" transform="translate(0,0)"/>
<path d="" fill="#E5BA71" transform="translate(0,0)"/>
<path d="" fill="#E7BC6E" transform="translate(0,0)"/>
<path d="" fill="#E8BE71" transform="translate(0,0)"/>
<path d="" fill="#E5B86D" transform="translate(0,0)"/>
<path d="" fill="#E9BD6F" transform="translate(0,0)"/>
<path d="" fill="#E5BA6F" transform="translate(0,0)"/>
<path d="" fill="#E7BA6E" transform="translate(0,0)"/>
<path d="" fill="#E8BB6F" transform="translate(0,0)"/>
<path d="" fill="#E9BB6E" transform="translate(0,0)"/>
<path d="" fill="#E8BB6E" transform="translate(0,0)"/>
<path d="" fill="#E7BB6F" transform="translate(0,0)"/>
<path d="" fill="#EABC70" transform="translate(0,0)"/>
<path d="" fill="#E7BB6E" transform="translate(0,0)"/>
<path d="" fill="#E8BA6F" transform="translate(0,0)"/>
<path d="" fill="#E7BB6E" transform="translate(0,0)"/>
<path d="" fill="#EABB6F" transform="translate(0,0)"/>
<path d="" fill="#E8BC6E" transform="translate(0,0)"/>
<path d="" fill="#E8BC6F" transform="translate(0,0)"/>
<path d="" fill="#E7BB6F" transform="translate(0,0)"/>
<path d="" fill="#E9BC6F" transform="translate(0,0)"/>
<path d="" fill="#E7BC70" transform="translate(0,0)"/>
<path d="" fill="#E9BD71" transform="translate(0,0)"/>
<path d="" fill="#E9B96D" transform="translate(0,0)"/>
<path d="" fill="#E7BA6D" transform="translate(0,0)"/>
<path d="" fill="#E8BB6D" transform="translate(0,0)"/>
<path d="" fill="#E7BA6D" transform="translate(0,0)"/>
<path d="" fill="#E9BC71" transform="translate(0,0)"/>
<path d="" fill="#E7BC6E" transform="translate(0,0)"/>
<path d="" fill="#E9BE72" transform="translate(0,0)"/>
<path d="" fill="#DAB16A" transform="translate(0,0)"/>
<path d="" fill="#E8BC6E" transform="translate(0,0)"/>
<path d="" fill="#E9BC70" transform="translate(0,0)"/>
<path d="" fill="#DBB169" transform="translate(0,0)"/>
<path d="" fill="#EBC071" transform="translate(0,0)"/>
<path d="" fill="#E9BC6F" transform="translate(0,0)"/>
<path d="" fill="#EABC70" transform="translate(0,0)"/>
<path d="" fill="#E9BE71" transform="translate(0,0)"/>
<path d="" fill="#E7BD6F" transform="translate(0,0)"/>
<path d="" fill="#EABD6E" transform="translate(0,0)"/>
<path d="" fill="#E7BC6F" transform="translate(0,0)"/>
<path d="" fill="#E8BB70" transform="translate(0,0)"/>
<path d="" fill="#EABC71" transform="translate(0,0)"/>
<path d="" fill="#E9BA6F" transform="translate(0,0)"/>
<path d="" fill="#E6B970" transform="translate(0,0)"/>
<path d="" fill="#E7BB6E" transform="translate(0,0)"/>
<path d="" fill="#E1B76D" transform="translate(0,0)"/>
<path d="" fill="#E8BC6F" transform="translate(0,0)"/>
<path d="" fill="#E6BB6E" transform="translate(0,0)"/>
<path d="" fill="#E6BA70" transform="translate(0,0)"/>
<path d="" fill="#E8BB6E" transform="translate(0,0)"/>
<path d="" fill="#E9BC6F" transform="translate(0,0)"/>
<path d="" fill="#E6BB6D" transform="translate(0,0)"/>
<path d="" fill="#E4B76C" transform="translate(0,0)"/>
<path d="" fill="#E7BA6D" transform="translate(0,0)"/>
<path d="" fill="#E6B96F" transform="translate(0,0)"/>
<path d="" fill="#E7BB6E" transform="translate(0,0)"/>
<path d="" fill="#E6BE71" transform="translate(0,0)"/>
<path d="" fill="#E6BA6F" transform="translate(0,0)"/>
<path d="" fill="#E6BB70" transform="translate(0,0)"/>
<path d="" fill="#DFB66C" transform="translate(0,0)"/>
<path d="" fill="#E9BB6E" transform="translate(0,0)"/>
<path d="" fill="#E1B76F" transform="translate(0,0)"/>
<path d="" fill="#E1B66D" transform="translate(0,0)"/>
<path d="" fill="#E6BB6C" transform="translate(0,0)"/>
<path d="" fill="#E2B66A" transform="translate(0,0)"/>
<path d="" fill="#E6B96E" transform="translate(0,0)"/>
<path d="" fill="#E8BB71" transform="translate(0,0)"/>
<path d="" fill="#E6BB70" transform="translate(0,0)"/>
<path d="" fill="#E8BC6E" transform="translate(0,0)"/>
<path d="" fill="#E7BD6F" transform="translate(0,0)"/>
<path d="" fill="#E8BB70" transform="translate(0,0)"/>
<path d="" fill="#E5BA6E" transform="translate(0,0)"/>
<path d="" fill="#E7BB70" transform="translate(0,0)"/>
<path d="" fill="#D9B269" transform="translate(0,0)"/>
<path d="" fill="#E7BA6F" transform="translate(0,0)"/>
<path d="" fill="#DDB46C" transform="translate(0,0)"/>
<path d="" fill="#E8BD70" transform="translate(0,0)"/>
<path d="" fill="#E6BB6E" transform="translate(0,0)"/>
<path d="" fill="#E8BB70" transform="translate(0,0)"/>
<path d="" fill="#E7BC70" transform="translate(0,0)"/>
<path d="" fill="#E9BB70" transform="translate(0,0)"/>
<path d="" fill="#E8BD6D" transform="translate(0,0)"/>
<path d="" fill="#E5BA6E" transform="translate(0,0)"/>
<path d="" fill="#E8BB6F" transform="translate(0,0)"/>
<path d="" fill="#DDB369" transform="translate(0,0)"/>
<path d="" fill="#E6BC6E" transform="translate(0,0)"/>
<path d="" fill="#EABB6E" transform="translate(0,0)"/>
<path d="" fill="#E7B970" transform="translate(0,0)"/>
<path d="" fill="#E9BE6C" transform="translate(0,0)"/>
<path d="" fill="#E4B86B" transform="translate(0,0)"/>
<path d="" fill="#E9BC6F" transform="translate(0,0)"/>
<path d="" fill="#E7BA6F" transform="translate(0,0)"/>
<path d="" fill="#E6BB6E" transform="translate(0,0)"/>
<path d="" fill="#E7BA71" transform="translate(0,0)"/>
<path d="" fill="#E7BC6E" transform="translate(0,0)"/>
<path d="" fill="#E5B871" transform="translate(0,0)"/>
<path d="" fill="#E6B970" transform="translate(0,0)"/>
<path d="" fill="#E6BB6D" transform="translate(0,0)"/>
<path d="" fill="#E5B96D" transform="translate(0,0)"/>
<path d="" fill="#E6BB6D" transform="translate(0,0)"/>
<path d="" fill="#E7BB6F" transform="translate(0,0)"/>
<path d="" fill="#E5B96F" transform="translate(0,0)"/>
<path d="" fill="#E6B96C" transform="translate(0,0)"/>
<path d="" fill="#E2B76C" transform="translate(0,0)"/>
<path d="" fill="#E6BA70" transform="translate(0,0)"/>
<path d="" fill="#E7BA6E" transform="translate(0,0)"/>
<path d="" fill="#E6BA6F" transform="translate(0,0)"/>
<path d="" fill="#E6B96D" transform="translate(0,0)"/>
<path d="" fill="#E7BA6D" transform="translate(0,0)"/>
<path d="" fill="#E6BA6C" transform="translate(0,0)"/>
<path d="" fill="#E3B66B" transform="translate(0,0)"/>
<path d="" fill="#E3B86D" transform="translate(0,0)"/>
<path d="" fill="#E7BA6E" transform="translate(0,0)"/>
<path d="" fill="#E7BA70" transform="translate(0,0)"/>
<path d="" fill="#DEB46A" transform="translate(0,0)"/>
<path d="" fill="#E9BE71" transform="translate(0,0)"/>
<path d="" fill="#D6AE68" transform="translate(0,0)"/>
<path d="" fill="#E7BA6F" transform="translate(0,0)"/>
<path d="" fill="#E6B96E" transform="translate(0,0)"/>
<path d="" fill="#E7BD71" transform="translate(0,0)"/>
<path d="" fill="#E7BC6E" transform="translate(0,0)"/>
<path d="" fill="#E7BC70" transform="translate(0,0)"/>
<path d="" fill="#E7BC6F" transform="translate(0,0)"/>
<path d="" fill="#E5BD6D" transform="translate(0,0)"/>
<path d="" fill="#E7BD6F" transform="translate(0,0)"/>
<path d="" fill="#E7BC6F" transform="translate(0,0)"/>
<path d="" fill="#E7BC6E" transform="translate(0,0)"/>
<path d="" fill="#E7BE70" transform="translate(0,0)"/>
<path d="" fill="#E7BB6E" transform="translate(0,0)"/>
<path d="" fill="#E6BB6F" transform="translate(0,0)"/>
<path d="" fill="#E7BB6E" transform="translate(0,0)"/>
<path d="" fill="#D5AF68" transform="translate(0,0)"/>
</svg>
