  <svg  version="1.0" xmlns="http://www.w3.org/2000/svg"  width="300.000000pt" height="450.000000pt" viewBox="0 0 300.000000 450.000000"  preserveAspectRatio="xMidYMid meet">  <g transform="translate(0.000000,450.000000) scale(0.050000,-0.050000)" fill="#b43d58" stroke="none"> <path d="M3233 6460 c-191 -175 -187 -289 14 -513 165 -183 136 -301 -86 -349 -267 -57 -472 -326 -463 -607 2 -54 -6 -104 -18 -111 -11 -7 -22 -80 -23 -161 -2 -82 -10 -154 -19 -160 -9 -5 -17 -46 -19 -90 -2 -43 -15 -110 -29 -149 -14 -38 -45 -132 -69 -208 -46 -147 -173 -425 -215 -468 -14 -15 -26 -35 -26 -44 0 -19 -169 -209 -280 -315 -62 -60 -217 -168 -475 -332 -203 -129 -255 -308 -135 -465 109 -142 334 -179 748 -121 200 28 722 225 722 272 0 8 12 14 27 14 213 0 1133 1003 1133 1234 0 16 14 34 30 40 17 7 28 19 26 27 -3 9 7 36 20 61 14 25 19 45 11 45 -8 0 -4 11 9 24 13 13 24 44 24 68 0 25 9 48 19 51 41 15 121 383 121 561 0 233 -47 358 -194 517 l-112 120 -15 235 c-40 628 -443 1085 -726 824z m284 -191 c187 -168 280 -456 257 -792 l-10 -153 126 -112 c235 -207 277 -385 180 -759 -278 -1071 -1286 -1914 -2288 -1913 -400 0 -419 114 -53 330 678 400 996 947 1112 1915 61 513 134 615 436 615 354 0 415 490 88 711 -114 77 -122 95 -71 170 71 104 95 103 223 -12z"/> <path d="M3095 5218 c11 -43 27 -53 99 -64 25 -3 51 -13 59 -20 7 -8 35 -14 62 -14 26 0 42 -9 36 -19 -7 -11 7 -15 32 -10 24 4 56 -2 71 -14 15 -13 32 -17 39 -11 7 7 36 -6 64 -28 29 -23 55 -32 58 -22 9 27 80 6 93 -28 6 -15 24 -22 41 -16 20 8 31 1 31 -19 0 -20 11 -27 29 -21 16 7 41 4 55 -5 59 -37 153 -2 116 43 -134 162 -920 382 -885 248z"/> </g> </svg> 